<mxfile host="app.diagrams.net" modified="2023-11-16T22:49:48.342Z" agent="Mozilla/5.0 (Windows NT 10.0; Win64; x64) AppleWebKit/537.36 (KHTML, like Gecko) Chrome/119.0.0.0 Safari/537.36" etag="oTo2ChPiqmyYpyiCucw3" version="22.1.2" type="google">
  <diagram name="PÃ¡gina-1" id="Hobx3_lWtQ_HxKA71PtB">
    <mxGraphModel grid="1" page="1" gridSize="10" guides="1" tooltips="1" connect="1" arrows="1" fold="1" pageScale="1" pageWidth="827" pageHeight="1169" math="0" shadow="0">
      <root>
        <mxCell id="0" />
        <mxCell id="1" parent="0" />
        <mxCell id="HRu1yhTrQg_QVF1FsZWa-15" style="edgeStyle=orthogonalEdgeStyle;rounded=0;orthogonalLoop=1;jettySize=auto;html=1;exitX=0.5;exitY=1;exitDx=0;exitDy=0;entryX=0;entryY=0.75;entryDx=0;entryDy=0;" edge="1" parent="1" source="HRu1yhTrQg_QVF1FsZWa-2" target="HRu1yhTrQg_QVF1FsZWa-13">
          <mxGeometry relative="1" as="geometry" />
        </mxCell>
        <mxCell id="HRu1yhTrQg_QVF1FsZWa-2" value="Usuario" style="swimlane;whiteSpace=wrap;html=1;" vertex="1" parent="1">
          <mxGeometry x="30" y="-70" width="200" height="220" as="geometry" />
        </mxCell>
        <mxCell id="HRu1yhTrQg_QVF1FsZWa-3" value="Usuario" style="text;html=1;align=left;verticalAlign=middle;resizable=0;points=[];autosize=1;strokeColor=none;fillColor=none;" vertex="1" parent="HRu1yhTrQg_QVF1FsZWa-2">
          <mxGeometry y="30" width="60" height="30" as="geometry" />
        </mxCell>
        <mxCell id="HRu1yhTrQg_QVF1FsZWa-6" value="Idade" style="text;html=1;align=left;verticalAlign=middle;resizable=0;points=[];autosize=1;strokeColor=none;fillColor=none;" vertex="1" parent="HRu1yhTrQg_QVF1FsZWa-2">
          <mxGeometry y="80" width="50" height="30" as="geometry" />
        </mxCell>
        <mxCell id="HRu1yhTrQg_QVF1FsZWa-7" value="ExpAcademica&lt;br&gt;" style="text;html=1;align=left;verticalAlign=middle;resizable=0;points=[];autosize=1;strokeColor=none;fillColor=none;" vertex="1" parent="HRu1yhTrQg_QVF1FsZWa-2">
          <mxGeometry y="125" width="100" height="30" as="geometry" />
        </mxCell>
        <mxCell id="HRu1yhTrQg_QVF1FsZWa-9" value="ExpProfissional" style="text;html=1;align=left;verticalAlign=middle;resizable=0;points=[];autosize=1;strokeColor=none;fillColor=none;" vertex="1" parent="HRu1yhTrQg_QVF1FsZWa-2">
          <mxGeometry y="170" width="110" height="30" as="geometry" />
        </mxCell>
        <mxCell id="HRu1yhTrQg_QVF1FsZWa-16" style="edgeStyle=orthogonalEdgeStyle;rounded=0;orthogonalLoop=1;jettySize=auto;html=1;exitX=0.5;exitY=1;exitDx=0;exitDy=0;entryX=0;entryY=0.5;entryDx=0;entryDy=0;" edge="1" parent="1" source="HRu1yhTrQg_QVF1FsZWa-10" target="HRu1yhTrQg_QVF1FsZWa-13">
          <mxGeometry relative="1" as="geometry" />
        </mxCell>
        <mxCell id="HRu1yhTrQg_QVF1FsZWa-10" value="Curriculo" style="swimlane;whiteSpace=wrap;html=1;" vertex="1" parent="1">
          <mxGeometry x="290" y="-70" width="200" height="200" as="geometry" />
        </mxCell>
        <mxCell id="HRu1yhTrQg_QVF1FsZWa-11" value="Usuario" style="text;html=1;align=left;verticalAlign=middle;resizable=0;points=[];autosize=1;strokeColor=none;fillColor=none;" vertex="1" parent="HRu1yhTrQg_QVF1FsZWa-10">
          <mxGeometry y="30" width="60" height="30" as="geometry" />
        </mxCell>
        <mxCell id="HRu1yhTrQg_QVF1FsZWa-12" value="LayoutCurriculo&lt;br&gt;" style="text;html=1;align=left;verticalAlign=middle;resizable=0;points=[];autosize=1;strokeColor=none;fillColor=none;" vertex="1" parent="HRu1yhTrQg_QVF1FsZWa-10">
          <mxGeometry y="70" width="110" height="30" as="geometry" />
        </mxCell>
        <mxCell id="HRu1yhTrQg_QVF1FsZWa-13" value="Base de dados" style="swimlane;whiteSpace=wrap;html=1;" vertex="1" parent="1">
          <mxGeometry x="580" y="150" width="200" height="120" as="geometry" />
        </mxCell>
      </root>
    </mxGraphModel>
  </diagram>
</mxfile>
